# xmcd
#
# Track frame offsets:
#	150
#	16426
#	36377
#	53628
#	73354
#	93005
#	110856
#	130282
#	149333
#	175959
#	178960
#
# Disc length: 2639 seconds
#
# Revision: 1
# Processed by: cddbd v1.5.2PL0 Copyright (c) Steve Scherf et al.
# Submitted via: audiograbber 1.83.01
#
DISCID=a70a4d0b
DTITLE=Sashird Lao - Open the Box
DYEAR=2010
DGENRE=Crossover
TTITLE0=Kalimanji So
TTITLE1=Baby'Lone
TTITLE2=Badawar
TTITLE3=Open The Box
TTITLE4=Jamuna
TTITLE5=If It Had To Be The Last Day
TTITLE6=Blind
TTITLE7=Burning Soul
TTITLE8=Flowers in My Head
TTITLE9=Rising
TTITLE10=So Free
EXTD=
EXTT0=
EXTT1=
EXTT2=
EXTT3=
EXTT4=
EXTT5=
EXTT6=
EXTT7=
EXTT8=
EXTT9=
EXTT10=
PLAYORDER=
